<?xml version="1.0" encoding="UTF-8" standalone="no"?>
<!-- Created with Inkscape (http://www.inkscape.org/) -->

<svg
   version="1.1"
   id="svg1"
   width="2086.2175"
   height="1112.0942"
   viewBox="0 0 2086.2175 1112.0943"
   sodipodi:docname="logo.png"
   xmlns:inkscape="http://www.inkscape.org/namespaces/inkscape"
   xmlns:sodipodi="http://sodipodi.sourceforge.net/DTD/sodipodi-0.dtd"
   xmlns="http://www.w3.org/2000/svg"
   xmlns:svg="http://www.w3.org/2000/svg">
  <defs
     id="defs1" />
  <sodipodi:namedview
     id="namedview1"
     pagecolor="#ffffff"
     bordercolor="#666666"
     borderopacity="1.0"
     inkscape:showpageshadow="2"
     inkscape:pageopacity="0.0"
     inkscape:pagecheckerboard="0"
     inkscape:deskcolor="#d1d1d1" />
  <g
     inkscape:groupmode="layer"
     inkscape:label="Image"
     id="g1"
     transform="translate(-108.14751,-3.4856638)">
    <path
       style="fill:#9fafac;fill-opacity:1"
       d="m 1188.05,1111.8214 c -7.7391,-4.5076 -9.0293,-11.849 -1.92,-10.9258 20.5709,2.6712 40.349,-10.4408 52.9213,-35.0845 l 7.4646,-14.6318 -17.3423,-41.3933 c -9.5382,-22.76616 -20.6908,-47.06856 -24.7834,-54.00506 l -7.4412,-12.6119 h 15.4571 c 8.5014,0 14.5038,1.5424 13.3388,3.4275 -1.8263,2.955 19.5183,60.94616 28.0307,76.15706 3.0473,5.4452 27.5308,-59.56826 27.4402,-72.86456 -0.034,-4.9897 3.0736,-6.72 12.0693,-6.72 11.641,0 11.8579,0.2843 5.5407,7.2647 -3.6159,3.9955 -16.8433,31.9229 -29.3941,62.06086 -26.1939,62.8984 -37.8723,84.293 -52.1369,95.5135 -11.1185,8.7458 -19.0096,9.7748 -29.2448,3.8133 z m 732.8274,-3.1484 c -6.3681,-7.0367 -6.1224,-7.296 6.9128,-7.296 17.6186,0 33.4272,-11.594 44.6475,-32.7445 9.0005,-16.9661 9.0042,-17.0314 1.9988,-35.7104 -3.86,-10.2922 -14.4261,-34.69706 -23.4803,-54.23306 l -16.462,-35.52 h 13.1778 c 9.24,0 13.1779,1.747 13.1779,5.8461 0,7.8601 27.5212,74.79386 30.753,74.79386 4.1682,0 27.7818,-72.18086 25.0563,-76.59086 -1.5478,-2.5043 2.0128,-4.0491 9.3326,-4.0491 11.3415,0 11.606,0.3604 6.3408,8.64 -3.0219,4.752 -12.5684,25.92 -21.2144,47.04 -24.7074,60.35396 -42.1182,92.87166 -56.4756,105.47756 -15.3142,13.446 -24.4642,14.6239 -33.7652,4.3464 z M 200.90948,994.72354 c -29.18326,-30.3833 -58.12726,-58.8504 -64.32,-63.26 l -11.25951,-8.01747 v 55.66717 c 0,45.48646 1.10357,56.77076 6.03428,61.70146 5.48572,5.4857 4.62163,6.0343 -9.50495,6.0343 -15.09367,0 -15.43186,-0.2825 -11.79429,-9.85 2.05973,-5.4175 3.74496,-42.98236 3.74496,-83.47756 v -73.62768 l 64.36117,64.27768 c 35.39864,35.3527 65.63864,64.27756 67.19999,64.27756 3.48745,0 3.24965,-48.99736 -0.43434,-89.49417 -1.79961,-19.78246 -4.64446,-31.18704 -8.36679,-33.54119 -3.92587,-2.48289 0.0465,-3.58487 13.07015,-3.6258 16.5759,-0.0521 18.139,0.62944 13.70286,5.97466 -3.57855,4.31189 -5.63017,28.314 -7.19018,84.11854 l -2.18287,78.08506 z m 163.3549,49.98766 c -9.17852,-6.4289 -11.46838,-23.605 -4.80645,-36.0529 4.2887,-8.0135 30.3278,-19.40926 44.34974,-19.40926 8.19385,0 9.51497,-1.7411 9.46985,-12.48 -0.0865,-20.5815 -4.09282,-29.6903 -14.17141,-32.2199 -11.78436,-2.9577 -21.70244,6.0603 -22.77785,20.7107 -0.4259,5.8021 -0.91475,11.1928 -1.08633,11.9794 -1.15739,5.3059 -11.83197,-9.8419 -11.83197,-16.7902 0,-11.8004 8.44357,-17.8798 27.8421,-20.0464 12.64289,-1.4121 18.6197,-0.01 26.53846,6.2436 9.80651,7.7394 10.27321,9.8031 11.52,50.9392 0.90685,29.92016 2.74962,43.35496 6.09944,44.46826 8.39381,2.7896 5.16648,8.6353 -4.76746,8.6353 -5.27893,0 -11.63327,-3.3079 -14.17614,-7.3797 -4.54615,-7.2795 -4.73595,-7.2795 -13.9904,0 -11.34797,8.9263 -26.66661,9.4883 -38.21158,1.4019 z m 38.94772,-9.6609 c 7.81523,-6.1475 10.11786,-11.3394 10.11786,-22.8134 0,-18.47136 -3.71902,-20.90596 -20.94238,-13.70956 -18.2121,7.60946 -24.6301,21.54366 -15.9938,34.72436 7.75661,11.838 13.56034,12.2273 26.81832,1.7986 z m 362.43786,11.4911 c -4.5966,-2.6773 -6.621,-8.4039 -6.4068,-18.1232 l 0.3133,-14.2092 5.3903,12.3147 c 9.9761,22.7914 36.7376,27.3598 47.4947,8.1077 5.2779,-9.446 5.1292,-10.9887 -1.7989,-18.6551 -4.1539,-4.5966 -15.826,-12.5529 -25.938,-17.68066 -20.1841,-10.2354 -28.0715,-22.4122 -24.2864,-37.4936 6.4581,-25.7311 63.7918,-29.22 63.7918,-3.882 v 10.1012 l -11.1407,-11.9261 c -12.2619,-13.1265 -23.4901,-15.1468 -32.745,-5.8918 -12.9983,12.9983 -5.9913,24.7354 23.6695,39.6477 29.2725,14.71686 34.9175,37.37706 13.5068,54.21866 -10.6368,8.3669 -40.0633,10.3372 -51.8506,3.4717 z M 1035.41,970.73694 c 0,-77.26498 -0.354,-81.14031 -7.8924,-86.42047 -7.6881,-5.38493 -7.5648,-5.64226 4.7624,-9.93955 18.3993,-6.41401 22.33,1.05283 22.33,42.41833 v 33.59829 l 10.56,-5.5086 c 32.6588,-17.0365 62.3712,5.927 62.3712,48.2041 0,24.78456 -9.1921,42.70806 -26.4907,51.65346 -13.315,6.8855 -35.8596,7.7692 -46.9384,1.84 -5.5862,-2.9896 -9.1729,-2.8617 -13.1876,0.4702 -4.763,3.9529 -5.5145,-6.4471 -5.5145,-76.31576 z m 55.5079,73.72666 c 10.5191,-4.0365 17.4521,-22.9199 17.4521,-47.53456 0,-38.6861 -15.8017,-56.6368 -41.8193,-47.5068 -9.8792,3.4667 -10.0363,4.1112 -11.1199,45.6214 -0.9466,36.26146 -0.1786,42.77796 5.534,46.95506 7.1567,5.2332 19.9876,6.2891 29.9531,2.4649 z m 693.3537,-4.1684 c -15.5909,-19.8206 0.7078,-44.54766 32.5064,-49.31606 l 17.3519,-2.6021 v -17.996 c 0,-18.5847 -4.8434,-27.2552 -15.168,-27.1532 -10.7963,0.1067 -16.5989,6.6244 -18.9891,21.3293 -2.2436,13.8025 -2.6841,14.1821 -9.0606,7.8056 -8.8837,-8.8837 -8.4772,-12.4079 2.7232,-23.6083 13.0982,-13.0981 37.1709,-13.0981 50.2691,0 8.7772,8.7772 9.4254,12.1238 9.4254,48.6577 0,31.11706 1.3146,40.68466 6.3552,46.25446 6.0046,6.6351 5.7947,7.0224 -3.8075,7.0224 -5.866,0 -12.1111,-3.1201 -14.7713,-7.3797 -4.5461,-7.2795 -4.7359,-7.2795 -13.9904,0 -13.9633,10.9836 -32.8806,9.6527 -42.8443,-3.0141 z m 45.0583,-5.9064 c 2.6637,-2.131 4.8,-12.2089 4.8,-22.6432 0,-18.55766 -0.1377,-18.77036 -10.56,-16.30576 -23.5343,5.56506 -35.2518,28.08876 -21.6753,41.66516 6.2397,6.2398 17.6534,5.1098 27.4353,-2.7162 z m 285.9744,10.3224 c -11.0015,-7.7057 -11.4533,-27.841 -0.8794,-39.1908 7.3956,-7.93816 29.3877,-16.20586 43.225,-16.24996 5.3852,-0.017 6.72,-3.3994 6.72,-17.0271 0,-18.1764 -7.1233,-29.0743 -19.0041,-29.0743 -9.807,0 -16.7722,9.8458 -16.3933,23.173 0.3466,12.1918 -2.5329,14.1607 -9.9146,6.779 -6.3848,-6.3848 -5.7667,-20.37 1.1541,-26.1138 3.1692,-2.6301 13.1052,-5.6022 22.08,-6.6046 12.6429,-1.4121 18.6197,-0.01 26.5385,6.2436 9.7818,7.72 10.2763,9.8721 11.52,50.1366 1.1333,36.69316 2.281,42.81116 8.9794,47.86616 7.3839,5.5723 7.217,5.8004 -4.3298,5.9178 -16.5096,0.1679 -22.0862,-8.2733 -22.3368,-33.8109 -0.204,-20.79486 -0.6279,-21.70046 -9.6825,-20.68526 -17.1655,1.9245 -27.0109,11.31826 -27.0109,25.77176 0,15.7404 10.6932,23.9344 22.7876,17.4617 11.9555,-6.3985 14.4389,-4.3415 4.627,3.8326 -10.9019,9.0822 -26.4439,9.7248 -38.0802,1.5745 z M 527.76195,1042.241 c 2.98333,-2.9834 4.608,-18.4564 4.608,-43.88566 0,-31.0771 -1.29805,-40.5758 -6.21714,-45.4949 -7.49393,-7.4939 -6.40354,-8.8953 9.37714,-12.0514 l 12.2,-2.44 v 44.39 c 0,24.41446 1.68523,48.82246 3.74496,54.23996 3.64935,9.5985 3.33564,9.85 -12.288,9.85 -12.47008,0 -15.00896,-1.024 -11.42496,-4.608 z m 118.99664,-73.68526 c 0.93377,-65.95004 0.18849,-79.22099 -4.72484,-84.13433 -5.21797,-5.21797 -4.67036,-6.23894 5.19,-9.67628 7.70275,-2.6852 12.30718,-2.55911 15.28484,0.41855 2.84599,2.846 4.26136,30.53488 4.26136,83.36536 0,56.40526 1.32225,80.42616 4.608,83.71196 3.584,3.584 1.23733,4.6088 -10.56,4.6118 h -15.168 z m 856.79681,72.93626 c 4.8231,-5.8115 13.7515,-67.48586 17.9863,-124.24296 1.4576,-19.536 3.7859,-35.52 5.174,-35.52 1.3881,0 6.4434,8.208 11.234,18.24 15.7645,33.0129 59.6464,112.31996 62.1484,112.31996 1.3485,0 16.8729,-29.80796 34.4985,-66.23996 l 32.0466,-66.24 2.9074,15.36 c 1.5991,8.448 5.6931,41.28 9.0977,72.96 3.4047,31.68 8.5444,62.35196 11.4217,68.15996 5.176,10.4483 5.0967,10.56 -7.4981,10.56 -15.2219,0 -15.2114,0.03 -21.6109,-61.43996 -2.5286,-24.288 -5.7223,-46.3443 -7.097,-49.0139 -1.4321,-2.7809 -14.5776,19.7685 -30.7804,52.8 -15.5545,31.70956 -28.7349,57.65386 -29.2898,57.65386 -0.555,0 -14.4559,-25.92 -30.891,-57.59996 -16.4351,-31.68 -31.044,-57.6 -32.4643,-57.6 -1.4203,0 -3.8338,23.3671 -5.3635,51.9269 -2.0798,38.83146 -1.5938,53.35756 1.9271,57.59996 4.0273,4.8526 2.3507,5.6731 -11.5922,5.6731 -13.5087,0 -15.5389,-0.9175 -11.8545,-5.357 z M 526.95984,913.01516 c -3.7678,-6.09642 1.3601,-14.59768 11.62686,-19.27553 9.30357,-4.23899 9.59287,-3.96028 8.42875,8.11988 -0.90712,9.41319 -3.25437,12.8015 -9.48316,13.68912 -4.55271,0.64878 -9.31032,-0.49128 -10.57245,-2.53347 z M 1118.0441,760.48621 c -23.2374,-25.0736 -22.6185,-100.08406 1.2858,-155.85072 l 7.6415,-17.82685 -17.4913,-28.21979 C 1049.3628,461.5982 938.01056,317.3684 929.67896,325.70004 c -1.1022,1.10214 -0.1465,6.88933 2.1237,12.86042 2.2702,5.97109 9.0308,34.40001 15.0236,63.17538 5.9927,28.77537 14.7379,59.98559 19.4337,69.35604 18.787,37.48914 44.63884,52.75238 68.47294,40.42728 11.252,-5.81861 12.0416,-5.71029 17.7465,2.43458 3.2838,4.68829 5.9706,9.95584 5.9706,11.70568 0,5.51977 -25.9878,14.30963 -42.3074,14.30963 -19.30974,0 -32.20004,-6.52093 -50.61194,-25.6035 -19.7054,-20.42311 -31.9703,-49.73328 -41.5089,-99.19649 -4.4801,-23.232 -11.8158,-54.336 -16.3016,-69.12 -7.3413,-24.19504 -11.1523,-29.87711 -38.1531,-56.88508 -16.4984,-16.50279 -29.9971,-31.27719 -29.9971,-32.832 0,-5.00559 9.0303,-12.04292 15.4536,-12.04292 12.3153,0 78.5518,47.85761 111.0653,80.24759 18.2372,18.16783 46.56904,51.17641 62.95974,73.35241 16.3907,22.176 33.8104,45.50399 38.7104,51.83999 l 8.909,11.52 6.5424,-15.36 c 3.5983,-8.448 15.0173,-40.11531 25.3756,-70.37181 l 18.8333,-55.01181 -13.0216,-42.95931 c -19.4464,-64.15538 -25.7696,-98.96097 -28.0411,-154.34971 -2.5359,-61.837147 3.145,-86.699787 23.9925,-105.004194 18.8099,-16.5152425 30.1214,-18.54842245 49.8549,-8.9611365 30.0361,14.5926635 41.3668,55.0254335 35.9974,128.4543405 -3.3746,46.15008 -11.9511,88.43268 -28.6056,141.02804 l -13.04,41.18083 12.8881,38.03738 c 18.4394,54.42076 37.0572,101.42822 40.0852,101.2096 1.4305,-0.10328 15.5609,-18.48982 31.4009,-40.85897 55.3072,-78.10461 100.2791,-123.02099 158.7226,-158.52662 27.2795,-16.57285 35.4467,-17.94139 42.2831,-7.08511 3.3716,5.35432 -0.9069,11.27623 -24.9696,34.56 -33.7941,32.70026 -40.4074,46.94528 -53.1562,114.49849 -4.4872,23.77719 -11.5375,52.26215 -15.6673,63.29991 -22.8032,60.94721 -65.1195,87.81743 -109.256,69.37602 -15.2385,-6.36708 -15.4228,-6.85176 -7.3107,-19.23235 5.7713,-8.80811 6.5369,-8.94434 19.5978,-3.48715 19.4243,8.11601 33.1947,3.66302 50.9105,-16.4632 17.5234,-19.90763 26.806,-45.42868 38.5149,-105.89069 4.388,-22.65861 9.7259,-45.79426 11.8619,-51.41256 6.1905,-16.28206 1.586,-15.09267 -17.4677,4.51215 -37.4391,38.52207 -82.4983,98.75067 -147.0658,196.57666 l -31.0468,47.0388 7.326,16.56155 c 25.5039,57.65578 24.9527,143.65331 -1.0374,161.85748 -13.2451,9.27723 -32.4846,7.50185 -43.1252,-3.97947 z m 36.2378,-44.76472 c 3.8778,-23.82626 -0.3662,-64.24164 -8.877,-84.53515 l -5.2412,-12.49729 -5.3281,17.28 c -7.3075,23.69933 -7.2491,96.36605 0.084,105.20253 8.1314,9.7978 15.1202,0.61146 19.3618,-25.45009 z m 11.5955,-194.47708 23.6275,-36.00464 -13.3086,-31.19536 c -7.3197,-17.15744 -18.0231,-44.58735 -23.7854,-60.95535 -5.7622,-16.368 -10.9779,-29.76 -11.5903,-29.76 -0.6124,0 -4.0545,9.072 -7.6491,20.16 -3.5947,11.088 -14.0368,38.65969 -23.2048,61.27043 l -16.669,41.11043 23.8561,36.2339 c 13.1209,19.92865 24.1351,35.98896 24.4761,35.68957 0.341,-0.29939 11.2523,-16.74643 24.2475,-36.54898 z m -9.5984,-294.65997 c 26.88,-104.94601 19.8111,-195.415377 -15.269,-195.415377 -37.6699,0 -42.0153,104.804177 -8.9678,216.289507 9.756,32.91175 10.66,32.13319 24.2368,-20.87413 z"
       id="path1" />
  </g>
</svg>
