<?xml version="1.0" encoding="UTF-8" standalone="no"?>
<svg
   id="_レイヤー_1"
   data-name="レイヤー 1"
   viewBox="0 0 394.50773 503.66751"
   version="1.1"
   width="394.50772"
   height="503.66751"
   xmlns="http://www.w3.org/2000/svg"
   xmlns:svg="http://www.w3.org/2000/svg">
  <defs
     id="defs58">
    <style
       id="style56">
      .cls-1 {
        font-family: Canto-Pen, Canto;
        font-size: 174.97px;
      }

      .cls-1, .cls-2 {
        fill: #adc3c2;
      }

      .cls-3 {
        letter-spacing: .2em;
      }

      .cls-2 {
        stroke-width: 0px;
      }
    </style>
  </defs>
  <path
     class="cls-2"
     d="m 393.59224,162.21 c -2.27,-4.43 -7.53,-6.01 -11.79,-3.73 -30.03,16.02 -54.87999,34.81 -75.93999,57.43 -22.03001,23.66 -41.11001,50.6 -57.95,74.36 -2.51,3.54 -5.07001,7.11 -7.68001,10.73 -13.27,-29.61 -21.51,-54.99 -31.60999,-86.1 -0.91001,-2.8 -1.84001,-5.65 -2.78001,-8.55 1.83001,-5.6 3.74,-11.39 5.77001,-17.45 11.52,-34.43 18.13999,-62.92 20.82,-89.66 2.40999,-24.06 6.45,-64.32 -11.59001,-87.94 -4.08,-5.34 -10.09,-9.1 -16.52,-10.59 V 0 h -14.16 v 0.71 c -6.43,1.48 -12.44,5.25 -16.52,10.59 -18.06,23.63 -14.01,63.89 -11.58999,87.94 2.68999,26.75 9.29999,55.24 20.81999,89.66 2.03,6.06 3.93001,11.85 5.77,17.45 -0.95,2.9 -1.88,5.77 -2.79,8.57 -10.09,31.09 -18.33,56.47 -31.59,86.07 -2.61,-3.62 -5.17,-7.19 -7.68,-10.73 -16.84,-23.76 -35.92,-50.7 -57.949995,-74.36 -21.06,-22.62 -45.9,-41.4 -75.93,-57.42 -4.26999,-2.28 -9.52999,-0.7 -11.81000004,3.72 -1.93999996,3.77 -0.57999,8.4 2.76000004,11 17.52001,13.64 30.48,27.07 34.71,35.96 8.31001,17.46 11.9,37.48 15.37,56.85 4.98,27.81 11.81,56.63 35.35,76.7 11.569995,9.87 27.709995,12.52 42.090005,6.91 4.73999,-1.85 9.23999,-4.31 13.34999,-7.24 l -9.44,-13.35 c -3.02999,2.14 -6.34,3.97 -9.86,5.34 -8.76,3.41 -18.53999,1.84 -25.519995,-4.11 -19.44,-16.58 -25.21,-41.21 -29.86,-67.14 -3.38,-18.88 -6.87,-38.36 -14.69,-56.56 7.62,6.45 14.78001,13.26 21.51,20.49 21.29,22.86 40.029995,49.32 56.569995,72.67 3.53,4.98 45.79,65.3 54.85,82.91 -14.40999,30.28 -22.11,62.66 -14.2,97.37 1.88,8.25 5.24,14.6 9.69,18.67 2.88,2.63 6.60001,4.15 10.46,4.75 v 0 c 2.14001,0.33 4.31,0.33 6.45,0 v 0 c 3.85,-0.6 7.58,-2.12 10.46,-4.76 4.45001,-4.07 7.81,-10.42 9.69001,-18.67 7.91999,-34.71 0.21999,-67.09 -14.19001,-97.37 9.06,-17.62 51.32,-77.93 54.85,-82.91 16.54,-23.35 35.28,-49.81 56.57001,-72.67 6.72999,-7.23 13.88999,-14.05 21.51,-20.49 -7.83001,18.21 -11.31001,37.68 -14.69,56.56 -4.65001,25.92 -10.43001,50.57 -29.86001,67.14 -6.98,5.95 -16.76,7.53 -25.52,4.11 -3.40999,-1.33 -6.63999,-3.08 -9.59,-5.14 l -9.43,13.34 c 4.04,2.84 8.44,5.24 13.07,7.05 14.39,5.61 30.51001,2.96 42.08001,-6.91 23.52999,-20.06 30.35999,-48.89 35.34999,-76.7 3.47,-19.36 7.05,-39.38 15.37001,-56.85 4.23,-8.89 17.18999,-22.31 34.69999,-35.95 3.34,-2.6 4.7,-7.24 2.77001,-11.01 z m -215.27,-64.6 c -2.03,-20.23 -5.81,-57.88 8.31,-76.37 2.26,-2.96 5.99,-4.88 9.5,-4.88 h 2.2 c 3.5,0 7.23,1.91 9.5,4.87 14.12,18.48 10.34001,56.14 8.31001,76.37 -2.47,24.57 -8.52,50.92 -18.91001,82.55 -10.39,-31.62 -16.44,-57.98 -18.91,-82.56 z m 26.33001,378.76 c -1.44001,6.31 -4.23,10.99 -6.63001,11.13 l -0.78,0.04 -0.78,-0.04 c -2.39999,-0.14 -5.19,-4.82 -6.63,-11.13 -5.79,-25.38 -1.77999,-49.93 7.42,-73.49 9.19,23.57 13.2,48.11 7.41001,73.49 z m -7.41001,-111.28 c -9.59,-16.93 -20.80999,-33.19 -31.99,-48.81 13.97,-29.85 22.57,-54.68 31.99,-83.48 9.42001,28.8 18.02,53.62 31.99,83.48 -11.18,15.63 -22.4,31.88 -31.99,48.81 z"
     id="path60" />
</svg>
