<?xml version="1.0" encoding="UTF-8" standalone="no"?>
<svg
   id="_レイヤー_1"
   data-name="レイヤー 1"
   viewBox="0 0 1358.4269 729.16248"
   version="1.1"
   width="1358.4269"
   height="729.16248"
   xmlns="http://www.w3.org/2000/svg"
   xmlns:svg="http://www.w3.org/2000/svg">
  <defs
     id="defs58">
    <style
       id="style56">
      .cls-1 {
        font-family: Canto-Pen, Canto;
        font-size: 174.97px;
      }

      .cls-1, .cls-2 {
        fill: #adc3c2;
      }

      .cls-3 {
        letter-spacing: .2em;
      }

      .cls-2 {
        stroke-width: 0px;
      }
    </style>
  </defs>
  <path
     class="cls-2"
     d="M 881.31394,162.21 C 879.04394,157.78 873.78394,156.2 869.52394,158.48 839.49394,174.5 814.64395,193.29 793.58395,215.91 771.55394,239.57 752.47394,266.51 735.63395,290.27 733.12395,293.81 730.56394,297.38 727.95394,301 714.68394,271.39 706.44394,246.01 696.34395,214.9 695.43394,212.1 694.50394,209.25 693.56394,206.35 695.39395,200.75 697.30394,194.96 699.33395,188.9 710.85395,154.47 717.47394,125.98 720.15395,99.24 722.56394,75.18 726.60395,34.92 708.56394,11.3 704.48394,5.96 698.47394,2.2 692.04394,0.71 V 0 H 677.88394 V 0.71 C 671.45394,2.19 665.44394,5.96 661.36394,11.3 643.30394,34.93 647.35394,75.19 649.77395,99.24 652.46394,125.99 659.07394,154.48 670.59394,188.9 672.62394,194.96 674.52395,200.75 676.36394,206.35 675.41394,209.25 674.48394,212.12 673.57394,214.92 663.48394,246.01 655.24394,271.39 641.98394,300.99 639.37394,297.37 636.81394,293.8 634.30394,290.26 617.46394,266.5 598.38394,239.56 576.35394,215.9 555.29394,193.28 530.45394,174.5 500.42394,158.48 496.15395,156.2 490.89395,157.78 488.61394,162.2 486.67394,165.97 488.03395,170.6 491.37394,173.2 508.89395,186.84 521.85394,200.27 526.08394,209.16 534.39395,226.62 537.98394,246.64 541.45394,266.01 546.43394,293.82 553.26394,322.64 576.80394,342.71 588.37394,352.58 604.51394,355.23 618.89395,349.62 623.63394,347.77 628.13394,345.31 632.24394,342.38 L 622.80394,329.03 C 619.77395,331.17 616.46394,333 612.94394,334.37 604.18394,337.78 594.40395,336.21 587.42394,330.26 567.98394,313.68 562.21394,289.05 557.56394,263.12 554.18394,244.24 550.69394,224.76 542.87394,206.56 550.49394,213.01 557.65395,219.82 564.38394,227.05 585.67394,249.91 604.41394,276.37 620.95394,299.72 624.48394,304.7 666.74394,365.02 675.80394,382.63 661.39395,412.91 653.69394,445.29 661.60394,480 663.48394,488.25 666.84394,494.6 671.29394,498.67 674.17394,501.3 677.89395,502.82 681.75394,503.42 V 503.42 C 683.89395,503.75 686.06394,503.75 688.20394,503.42 V 503.42 C 692.05394,502.82 695.78394,501.3 698.66394,498.66 703.11395,494.59 706.47394,488.24 708.35395,479.99 716.27394,445.28 708.57394,412.9 694.16394,382.62 703.22394,365 745.48394,304.69 749.01394,299.71 765.55394,276.36 784.29394,249.9 805.58395,227.04 812.31394,219.81 819.47394,212.99 827.09395,206.55 819.26394,224.76 815.78394,244.23 812.40395,263.11 807.75394,289.03 801.97394,313.68 782.54394,330.25 775.56394,336.2 765.78394,337.78 757.02394,334.36 753.61395,333.03 750.38395,331.28 747.43394,329.22 L 738.00394,342.56 C 742.04394,345.4 746.44394,347.8 751.07394,349.61 765.46394,355.22 781.58395,352.57 793.15395,342.7 816.68394,322.64 823.51394,293.81 828.50394,266 831.97394,246.64 835.55394,226.62 843.87395,209.15 848.10395,200.26 861.06394,186.84 878.57394,173.2 881.91394,170.6 883.27394,165.96 881.34395,162.19 Z M 666.04394,97.61 C 664.01394,77.38 660.23394,39.73 674.35394,21.24 676.61394,18.28 680.34394,16.36 683.85394,16.36 H 686.05394 C 689.55394,16.36 693.28394,18.27 695.55394,21.23 709.67394,39.71 705.89395,77.37 703.86395,97.6 701.39395,122.17 695.34395,148.52 684.95394,180.15 674.56394,148.53 668.51394,122.17 666.04394,97.59 Z M 692.37395,476.37 C 690.93394,482.68 688.14395,487.36 685.74394,487.5 L 684.96394,487.54 684.18394,487.5 C 681.78395,487.36 678.99394,482.68 677.55394,476.37 671.76394,450.99 675.77395,426.44 684.97394,402.88 694.16394,426.45 698.17394,450.99 692.38395,476.37 Z M 684.96394,365.09 C 675.37394,348.16 664.15395,331.9 652.97394,316.28 666.94394,286.43 675.54394,261.6 684.96394,232.8 694.38395,261.6 702.98394,286.42 716.95394,316.28 705.77394,331.91 694.55394,348.16 684.96394,365.09 Z"
     id="path60" />
  <g
     aria-label="Nails by Maya"
     transform="translate(-12.986055,685.42)"
     id="text66"
     class="cls-1"
     style="font-size:174.97px;font-family:Canto-Pen, Canto;fill:#adc3c2">
    <path
       d="M 116.53275,-42.033809 Q 116.02015,-23.409072 116.02015,-13.327793 116.02015,-8.2017188 115.93471,-3.0756446 115.84928,2.0504297 115.84928,2.8193408 108.67277,-6.1512891 106.70778,-7.8599805 98.50606,-16.659741 90.304341,-24.86146 L 67.322442,-47.928794 Q 54.848995,-60.658545 45.024019,-70.227217 32.379702,-82.529795 29.731231,-85.007398 29.816665,-83.127837 29.816665,-78.343502 29.9021,-73.6446 29.9021,-71.252432 L 30.158404,-52.285957 30.671011,-31.183618 Q 30.84188,-22.554727 31.354488,-11.191929 31.610791,-6.4930274 34.515567,-3.8445557 37.334907,-1.2815186 45.280323,-0.34173828 V 0 Q 41.350332,0 34.601001,-0.51260743 27.937105,-1.0252149 26.741021,-1.0252149 24.605156,-1.0252149 20.504297,-0.51260743 16.574307,0 12.986055,0 V -0.34173828 Q 18.026694,-1.2815186 19.82082,-3.2465137 21.700381,-5.2115088 22.212988,-11.533667 24.007114,-37.078604 24.007114,-75.267857 V -97.993453 Q 24.007114,-104.40105 22.554727,-109.69799 24.007114,-109.52712 25.203198,-108.50191 26.484717,-107.56212 28.876885,-104.82822 31.354488,-102.17975 32.550572,-100.98366 35.797085,-97.737149 50.064659,-83.298707 64.332232,-68.860264 72.790254,-60.402242 91.244122,-41.777505 110.38147,-24.007114 110.38147,-72.875689 109.52712,-91.500425 109.01451,-101.15453 106.62234,-104.23018 104.31561,-107.30582 96.797369,-108.33104 V -108.67277 Q 99.360406,-108.67277 105.768,-108.2456 112.17559,-107.81843 113.54254,-107.81843 114.56776,-107.81843 118.83949,-108.2456 123.19665,-108.67277 125.84512,-108.67277 V -108.33104 Q 121.48796,-107.56212 119.77927,-104.14474 118.15601,-100.72736 117.89971,-94.148897 117.81427,-92.354771 117.47253,-82.786099 117.21623,-73.217427 116.87449,-62.79441 116.61819,-52.456827 116.53275,-42.033809 Z"
       style="font-family:'Canto Pen';-inkscape-font-specification:'Canto Pen';letter-spacing:0.2em"
       id="path20199" />
    <path
       d="M 226.79462,-51.602481 Q 226.79462,-47.672491 226.70919,-39.470772 226.62375,-31.354488 226.62375,-27.082759 226.62375,-20.760601 226.88005,-16.659741 227.22179,-12.644316 227.9907,-9.1414991 228.84505,-5.6386817 230.38287,-3.7591211 231.92069,-1.9649951 234.3983,-1.0252149 236.8759,-0.17086914 240.46415,-0.34173828 V 0 Q 229.01592,1.196084 226.79462,1.196084 222.43746,1.196084 219.27638,-1.3669531 216.02986,-4.1008594 215.94443,-11.704536 214.23574,-6.8347657 210.56205,-3.6736865 206.88837,-0.51260743 203.30011,0.51260743 199.7973,1.5378223 196.03817,1.5378223 188.09276,1.5378223 183.13755,-2.4776026 178.18235,-6.578462 178.18235,-14.694746 178.18235,-24.434287 184.93168,-30.158404 191.68101,-35.967954 204.41076,-37.591211 212.86879,-38.360122 215.77356,-38.360122 215.77356,-41.094029 215.859,-45.963799 215.94443,-50.919004 215.94443,-52.456827 215.94443,-60.402242 213.29596,-64.930274 210.64749,-69.458306 204.06902,-69.458306 197.576,-69.458306 194.24405,-64.759405 192.02275,-61.000284 192.02275,-55.788775 192.02275,-51.175308 193.73144,-47.587056 188.94711,-47.501621 186.04233,-49.979224 183.22299,-52.542261 183.22299,-56.728555 183.22299,-64.503101 189.54515,-68.176788 195.95274,-71.935909 206.03402,-71.935909 215.17552,-71.935909 220.98507,-66.7244 226.79462,-61.598326 226.79462,-51.602481 Z M 215.77356,-36.053389 Q 202.61664,-35.711651 196.03817,-30.243838 189.54515,-24.86146 189.54515,-16.488872 189.54515,-10.423018 192.44992,-7.2619385 195.3547,-4.186294 200.56621,-4.186294 206.11945,-4.186294 210.90379,-8.2017188 215.77356,-12.217144 215.77356,-17.00148 Z"
       style="font-family:'Canto Pen';-inkscape-font-specification:'Canto Pen';letter-spacing:0.2em"
       id="path20201" />
    <path
       d="M 307.32526,-103.20496 Q 305.702,-101.66714 305.18939,-98.762364 304.67678,-95.943023 304.59135,-93.209117 304.59135,-90.475211 304.16418,-89.791734 302.88266,-88.424781 300.49049,-87.399566 298.18376,-86.459786 295.96246,-86.459786 293.48486,-86.459786 291.8616,-87.912173 290.32378,-89.449996 290.23834,-91.842164 290.23834,-96.6265 294.76637,-99.531275 299.80701,-103.03409 307.32526,-103.20496 Z M 283.40358,-65.61375 V -65.955489 Q 286.47922,-66.980704 291.26356,-69.031133 296.04789,-71.081563 299.63615,-71.423301 303.90787,-71.76504 304.67678,-69.458306 305.4457,-67.151573 305.4457,-55.788775 V -32.721441 Q 305.4457,-17.172349 305.9583,-10.337583 306.38548,-4.6989014 308.60678,-2.9047754 311.08438,-1.1106494 316.46676,-0.34173828 V 0 Q 313.64741,0 307.23982,-0.42717285 300.83223,-0.85434571 298.26919,-0.85434571 296.64594,-0.85434571 292.63051,-0.42717285 288.70052,0 286.13748,0 V -0.34173828 Q 289.6403,-0.85434571 291.51986,-2.7339063 293.57029,-4.6134668 293.91203,-10.337583 294.42464,-19.564517 294.42464,-32.89231 V -50.235528 Q 294.0829,-60.060503 292.03247,-62.965279 290.06747,-65.955489 283.40358,-65.61375 Z"
       style="font-family:'Canto Pen';-inkscape-font-specification:'Canto Pen';letter-spacing:0.2em"
       id="path20203" />
    <path
       d="M 382.21719,-107.39126 Q 382.38806,-100.30019 382.38806,-51.944219 382.38806,-20.589732 382.9861,-13.156924 383.41327,-6.578462 385.37827,-3.9299903 387.4287,-1.3669531 393.83629,-0.34173828 V 0 Q 390.67521,0 386.06174,-0.42717285 381.53371,-0.85434571 379.65415,-0.85434571 378.2872,-0.85434571 372.81938,-0.42717285 367.35157,0 365.13027,0 V -0.34173828 Q 367.1807,-0.93978028 368.12048,-1.5378223 369.06026,-2.1358643 369.82917,-4.2717285 370.68352,-6.4930274 371.02526,-10.679321 371.79417,-22.9819 371.79417,-53.225738 371.79417,-84.067618 371.19613,-94.148897 370.76896,-101.23997 369.31657,-105.08452 367.86418,-109.09995 363.16528,-109.01451 361.37115,-109.01451 358.63725,-108.33104 V -108.67277 Q 359.57703,-108.92908 363.42158,-110.63777 367.26614,-112.4319 371.11069,-113.88428 375.04068,-115.42211 377.17655,-115.50754 380.67937,-115.67841 381.36284,-113.62798 382.04632,-111.83385 382.21719,-107.39126 Z"
       style="font-family:'Canto Pen';-inkscape-font-specification:'Canto Pen';letter-spacing:0.2em"
       id="path20205" />
    <path
       d="M 443.69592,-7.3473731 Q 442.07266,-12.815186 444.55026,-25.544937 H 444.892 Q 445.23374,-14.865615 451.38503,-7.8599805 457.62175,-0.85434571 466.07977,-0.85434571 472.91454,-0.85434571 476.84453,-4.3571631 480.77452,-7.9454151 480.77452,-14.865615 480.68908,-18.026694 479.57844,-20.333428 478.55322,-22.725596 475.99018,-24.605156 473.42715,-26.570152 471.03498,-27.766236 468.64281,-29.047754 463.94391,-31.183618 453.77719,-35.626216 448.99286,-40.581421 444.20852,-45.622061 444.20852,-52.627696 444.20852,-61.085718 449.8472,-66.468096 455.57132,-71.935909 466.76325,-71.935909 474.87953,-71.935909 480.94539,-69.287437 486.49864,-66.468096 486.32777,-60.914849 486.24233,-59.206158 484.78994,-50.577266 H 484.44821 Q 482.99582,-59.291592 478.12605,-64.332232 473.25628,-69.458306 466.59238,-69.458306 460.86826,-69.458306 457.36545,-66.211792 453.94806,-62.965279 453.94806,-57.412032 453.94806,-51.517046 457.96349,-48.014229 461.80804,-44.767715 470.43694,-40.923159 479.7493,-36.907735 484.96081,-32.208833 490.25776,-27.595366 490.34319,-19.393648 490.51406,-10.166714 483.59386,-4.186294 476.75909,1.7086914 464.79825,1.7086914 456.2548,1.7086914 450.10351,-0.85434571 448.56569,-1.7086914 447.54047,-2.3067334 446.60069,-2.99021 445.40461,-4.3571631 444.20852,-5.7241163 443.69592,-7.3473731 Z"
       style="font-family:'Canto Pen';-inkscape-font-specification:'Canto Pen';letter-spacing:0.2em"
       id="path20207" />
    <path
       d="M 616.37626,-94.148897 Q 616.03452,-101.75257 614.32583,-105.34083 612.70258,-108.92908 608.34541,-108.84364 606.63672,-108.84364 603.73195,-108.16017 V -108.67277 Q 603.81738,-108.67277 611.33562,-112.00472 618.9393,-115.33667 621.75864,-115.50754 625.6032,-115.59297 626.37211,-113.62798 627.14102,-111.66298 627.39732,-107.39126 628.0808,-95.430416 628.0808,-61.598326 638.33295,-71.423301 649.61031,-71.423301 662.34006,-71.423301 670.02917,-62.110933 677.80372,-52.798565 677.80372,-37.591211 677.80372,-19.393648 668.49135,-8.7997608 659.17898,1.7086914 643.80076,1.7086914 630.13123,1.7086914 623.72364,-4.186294 621.33147,-0.25630371 614.58214,3.5028174 L 614.41127,3.3319483 Q 616.37626,0.68347657 616.54713,-4.6989014 L 616.80344,-16.574307 Q 616.9743,-26.655586 616.9743,-31.78166 617.05974,-36.993169 617.05974,-46.305537 V -55.959644 Q 617.23061,-74.926119 616.37626,-94.148897 Z M 665.67201,-34.857305 Q 665.67201,-49.210313 660.28963,-57.497466 654.99269,-65.78462 644.56967,-65.78462 636.88056,-65.78462 628.0808,-59.462461 628.0808,-49.808355 627.99536,-36.224258 627.90993,-22.725596 627.90993,-16.232568 627.90993,-12.90062 627.99536,-11.448233 628.16623,-9.9958448 628.84971,-8.2871534 629.53319,-6.6638965 631.07101,-5.382378 637.30773,-0.51260743 644.22793,-0.51260743 648.92683,-0.51260743 652.68595,-2.5630371 656.53051,-4.6989014 658.83724,-8.0308497 661.22941,-11.448233 662.76723,-15.976265 664.39049,-20.589732 664.98853,-25.203198 665.67201,-29.9021 665.67201,-34.857305 Z"
       style="font-family:'Canto Pen';-inkscape-font-specification:'Canto Pen';letter-spacing:0.2em"
       id="path20209" />
    <path
       d="M 766.53608,-15.036484 Q 754.14807,17.00148 743.98136,30.329273 733.90008,43.7425 723.64793,43.7425 713.90839,43.7425 710.32013,33.404917 713.05404,35.711651 719.46163,35.711651 727.83422,35.711651 735.52333,29.731231 743.29788,23.836245 749.02199,13.8404 750.47438,11.362798 751.84134,8.2871534 753.20829,5.2969434 753.89177,3.5028174 L 754.57524,1.7086914 Q 752.43938,-5.6386817 740.82028,-32.550572 736.29224,-42.973589 733.38747,-49.295747 729.71378,-57.412032 727.15074,-61.940064 724.50227,-66.553531 722.70815,-68.005918 720.91402,-69.372872 717.66751,-69.800044 V -70.141783 Q 720.57228,-70.141783 726.80901,-69.800044 733.13116,-69.458306 735.35246,-69.458306 736.37768,-69.458306 739.96593,-69.800044 743.55418,-70.141783 745.69005,-70.141783 V -69.800044 Q 741.93093,-69.202002 740.99115,-67.237007 740.05136,-65.272012 741.50375,-61.085718 742.27266,-58.949854 745.26287,-50.83357 746.54439,-47.416187 750.55982,-37.420342 L 756.11306,-23.92168 760.55566,-13.327793 Q 760.72653,-12.729751 760.8974,-12.558882 761.1537,-12.473447 761.23914,-12.729751 761.41001,-12.986055 761.58088,-13.498662 768.75738,-31.95253 776.61736,-55.617906 779.00953,-63.73419 778.32605,-66.382662 777.72801,-69.031133 773.88345,-69.800044 V -70.141783 Q 775.42128,-70.141783 778.92409,-69.800044 782.42691,-69.458306 783.79387,-69.458306 785.07538,-69.458306 789.68885,-69.800044 794.38775,-70.141783 796.95079,-70.141783 V -69.800044 Q 792.93536,-69.372872 790.5432,-66.980704 788.15103,-64.67397 784.73365,-57.582901 775.42128,-38.445557 766.53608,-15.036484 Z"
       style="font-family:'Canto Pen';-inkscape-font-specification:'Canto Pen';letter-spacing:0.2em"
       id="path20211" />
    <path
       d="M 998.67889,-49.893789 Q 997.14107,-46.73271 992.44216,-37.505777 987.8287,-28.278843 985.94914,-24.519722 984.15501,-20.846035 981.1648,-14.182139 978.26002,-7.5182422 975.95329,-1.5378223 975.35525,0.17086914 975.09895,0.17086914 974.75721,0.17086914 974.2446,-0.34173828 973.73199,-0.93978028 973.47569,-1.5378223 971.68156,-5.98042 965.44484,-17.94126 959.20812,-29.987534 953.14226,-41.179463 948.18706,-50.406397 940.58338,-64.161363 933.40688,-77.147418 931.69818,-79.966758 928.79341,-45.280323 927.17015,-15.036484 926.91385,-10.593887 927.42646,-7.8599805 927.93906,-5.1260743 929.64775,-3.588252 931.44188,-2.1358643 933.32144,-1.5378223 935.28644,-0.93978028 939.04556,-0.34173828 V 0 Q 936.14078,0 930.07493,-0.51260743 924.09451,-1.0252149 922.38582,-1.0252149 921.44604,-1.0252149 915.63648,-0.51260743 909.82693,0 907.5202,0 V -0.34173828 Q 913.58605,-1.0252149 915.63648,-3.588252 917.68691,-6.2367237 918.883,-14.523877 919.90821,-21.273208 921.53147,-34.857305 923.24016,-49.295747 924.26538,-58.69355 925.54689,-70.65439 926.57211,-82.444361 927.59732,-92.867379 928.19537,-102.17975 928.19537,-102.43605 928.36624,-104.23018 928.5371,-106.10974 928.62254,-107.30582 928.79341,-108.50191 929.30602,-109.78342 929.81862,-111.06494 930.5021,-111.49212 930.84384,-110.38147 932.03992,-107.56212 932.80883,-105.68256 934.51752,-102.17975 937.6786,-95.174112 943.40272,-84.494791 954.33835,-64.503101 954.85095,-63.477886 958.86638,-56.215948 967.0681,-41.692071 971.51069,-33.917525 978.26002,-21.700381 979.88328,-24.605156 985.09479,-35.028174 L 995.17607,-55.447037 Q 997.56824,-60.402242 1002.438,-70.312652 1007.3078,-80.223062 1011.0669,-87.997608 1014.9115,-95.857589 1017.7308,-102.17975 1019.5249,-105.93887 1020.8919,-108.41647 1022.4297,-111.32125 1023.7112,-111.32125 L 1024.5656,-98.50606 1026.616,-78.001763 Q 1028.4101,-60.573111 1029.2645,-53.225738 1030.4605,-42.546416 1032.2547,-29.645796 1033.7925,-18.710171 1035.074,-12.815186 1035.7575,-9.9958448 1036.0138,-8.7997608 1036.3555,-7.6036768 1036.9536,-5.8095508 1037.6371,-4.0154248 1038.3205,-3.3319483 1039.004,-2.7339063 1040.1147,-1.8795606 1041.3107,-1.1106494 1042.8486,-0.76891114 1044.4718,-0.51260743 1046.7786,-0.34173828 V 0 Q 1044.899,0 1041.9942,-0.17086914 1039.0894,-0.34173828 1035.4158,-0.34173828 1033.8779,-0.34173828 1031.4858,-0.17086914 1029.179,0 1027.8975,0 1026.616,-0.08543457 1025.8471,-0.51260743 1024.2238,-1.196084 1023.3695,-3.4173828 1022.6006,-5.6386817 1022.0025,-9.8249757 1021.1482,-15.292788 1019.9521,-25.288633 1017.6454,-44.511411 1017.5599,-45.280323 1016.4493,-55.447037 1015.5095,-65.442881 1014.9115,-72.192212 1014.3134,-81.333712 1012.0067,-76.378506 998.67889,-49.893789 Z"
       style="font-family:'Canto Pen';-inkscape-font-specification:'Canto Pen';letter-spacing:0.2em"
       id="path20213" />
    <path
       d="M 1142.1747,-51.602481 Q 1142.1747,-47.672491 1142.0893,-39.470772 1142.0039,-31.354488 1142.0039,-27.082759 1142.0039,-20.760601 1142.2602,-16.659741 1142.6019,-12.644316 1143.3708,-9.1414991 1144.2252,-5.6386817 1145.763,-3.7591211 1147.3008,-1.9649951 1149.7784,-1.0252149 1152.256,-0.17086914 1155.8443,-0.34173828 V 0 Q 1144.396,1.196084 1142.1747,1.196084 1137.8176,1.196084 1134.6565,-1.3669531 1131.41,-4.1008594 1131.3245,-11.704536 1129.6158,-6.8347657 1125.9422,-3.6736865 1122.2685,-0.51260743 1118.6802,0.51260743 1115.1774,1.5378223 1111.4183,1.5378223 1103.4729,1.5378223 1098.5177,-2.4776026 1093.5625,-6.578462 1093.5625,-14.694746 1093.5625,-24.434287 1100.3118,-30.158404 1107.0611,-35.967954 1119.7909,-37.591211 1128.2489,-38.360122 1131.1537,-38.360122 1131.1537,-41.094029 1131.2391,-45.963799 1131.3245,-50.919004 1131.3245,-52.456827 1131.3245,-60.402242 1128.6761,-64.930274 1126.0276,-69.458306 1119.4491,-69.458306 1112.9561,-69.458306 1109.6242,-64.759405 1107.4029,-61.000284 1107.4029,-55.788775 1107.4029,-51.175308 1109.1116,-47.587056 1104.3272,-47.501621 1101.4224,-49.979224 1098.6031,-52.542261 1098.6031,-56.728555 1098.6031,-64.503101 1104.9253,-68.176788 1111.3329,-71.935909 1121.4141,-71.935909 1130.5556,-71.935909 1136.3652,-66.7244 1142.1747,-61.598326 1142.1747,-51.602481 Z M 1131.1537,-36.053389 Q 1117.9967,-35.711651 1111.4183,-30.243838 1104.9253,-24.86146 1104.9253,-16.488872 1104.9253,-10.423018 1107.83,-7.2619385 1110.7348,-4.186294 1115.9463,-4.186294 1121.4996,-4.186294 1126.2839,-8.2017188 1131.1537,-12.217144 1131.1537,-17.00148 Z"
       style="font-family:'Canto Pen';-inkscape-font-specification:'Canto Pen';letter-spacing:0.2em"
       id="path20215" />
    <path
       d="M 1239.0234,-15.036484 Q 1226.6354,17.00148 1216.4687,30.329273 1206.3874,43.7425 1196.1353,43.7425 1186.3958,43.7425 1182.8075,33.404917 1185.5414,35.711651 1191.949,35.711651 1200.3216,35.711651 1208.0107,29.731231 1215.7852,23.836245 1221.5094,13.8404 1222.9617,11.362798 1224.3287,8.2871534 1225.6957,5.2969434 1226.3791,3.5028174 L 1227.0626,1.7086914 Q 1224.9267,-5.6386817 1213.3076,-32.550572 1208.7796,-42.973589 1205.8748,-49.295747 1202.2011,-57.412032 1199.6381,-61.940064 1196.9896,-66.553531 1195.1955,-68.005918 1193.4014,-69.372872 1190.1549,-69.800044 V -70.141783 Q 1193.0596,-70.141783 1199.2964,-69.800044 1205.6185,-69.458306 1207.8398,-69.458306 1208.865,-69.458306 1212.4533,-69.800044 1216.0415,-70.141783 1218.1774,-70.141783 V -69.800044 Q 1214.4183,-69.202002 1213.4785,-67.237007 1212.5387,-65.272012 1213.9911,-61.085718 1214.76,-58.949854 1217.7502,-50.83357 1219.0318,-47.416187 1223.0472,-37.420342 L 1228.6004,-23.92168 1233.043,-13.327793 Q 1233.2139,-12.729751 1233.3848,-12.558882 1233.6411,-12.473447 1233.7265,-12.729751 1233.8974,-12.986055 1234.0682,-13.498662 1241.2447,-31.95253 1249.1047,-55.617906 1251.4969,-63.73419 1250.8134,-66.382662 1250.2154,-69.031133 1246.3708,-69.800044 V -70.141783 Q 1247.9086,-70.141783 1251.4115,-69.800044 1254.9143,-69.458306 1256.2812,-69.458306 1257.5627,-69.458306 1262.1762,-69.800044 1266.8751,-70.141783 1269.4382,-70.141783 V -69.800044 Q 1265.4227,-69.372872 1263.0306,-66.980704 1260.6384,-64.67397 1257.221,-57.582901 1247.9086,-38.445557 1239.0234,-15.036484 Z"
       style="font-family:'Canto Pen';-inkscape-font-specification:'Canto Pen';letter-spacing:0.2em"
       id="path20217" />
    <path
       d="M 1357.7433,-51.602481 Q 1357.7433,-47.672491 1357.6579,-39.470772 1357.5725,-31.354488 1357.5725,-27.082759 1357.5725,-20.760601 1357.8288,-16.659741 1358.1705,-12.644316 1358.9394,-9.1414991 1359.7938,-5.6386817 1361.3316,-3.7591211 1362.8694,-1.9649951 1365.347,-1.0252149 1367.8246,-0.17086914 1371.4129,-0.34173828 V 0 Q 1359.9646,1.196084 1357.7433,1.196084 1353.3862,1.196084 1350.2251,-1.3669531 1346.9786,-4.1008594 1346.8931,-11.704536 1345.1845,-6.8347657 1341.5108,-3.6736865 1337.8371,-0.51260743 1334.2488,0.51260743 1330.746,1.5378223 1326.9869,1.5378223 1319.0415,1.5378223 1314.0863,-2.4776026 1309.1311,-6.578462 1309.1311,-14.694746 1309.1311,-24.434287 1315.8804,-30.158404 1322.6297,-35.967954 1335.3595,-37.591211 1343.8175,-38.360122 1346.7223,-38.360122 1346.7223,-41.094029 1346.8077,-45.963799 1346.8931,-50.919004 1346.8931,-52.456827 1346.8931,-60.402242 1344.2447,-64.930274 1341.5962,-69.458306 1335.0177,-69.458306 1328.5247,-69.458306 1325.1928,-64.759405 1322.9715,-61.000284 1322.9715,-55.788775 1322.9715,-51.175308 1324.6802,-47.587056 1319.8958,-47.501621 1316.991,-49.979224 1314.1717,-52.542261 1314.1717,-56.728555 1314.1717,-64.503101 1320.4939,-68.176788 1326.9015,-71.935909 1336.9827,-71.935909 1346.1242,-71.935909 1351.9338,-66.7244 1357.7433,-61.598326 1357.7433,-51.602481 Z M 1346.7223,-36.053389 Q 1333.5654,-35.711651 1326.9869,-30.243838 1320.4939,-24.86146 1320.4939,-16.488872 1320.4939,-10.423018 1323.3986,-7.2619385 1326.3034,-4.186294 1331.5149,-4.186294 1337.0682,-4.186294 1341.8525,-8.2017188 1346.7223,-12.217144 1346.7223,-17.00148 Z"
       style="font-family:'Canto Pen';-inkscape-font-specification:'Canto Pen';letter-spacing:0.2em"
       id="path20219" />
  </g>
</svg>
